<svg width="1024" height="1024" viewBox="0 0 78.8887 79" fill="none" xmlns="http://www.w3.org/2000/svg">
  <rect width="78.8887" height="79" fill="#1a56db"/>
  <path d="M65.282 27.9038H45.6535L47.8448 30.8029H64.0565C64.9455 30.8029 65.6284 31.5842 65.5027 32.4574L63.7287 44.7785C63.6259 45.4926 63.0095 46.0231 62.2825 46.0231H48.5753L47.1144 49.2845H50.7666L44.5483 53.7718C43.9762 54.1846 44.2705 55.0827 44.9779 55.0827H59.5163C60.1778 55.0827 60.4986 54.28 60.0169 53.8302L55.1493 49.2845H63.592C65.4427 49.2845 67.0008 47.9111 67.2188 46.0876L68.9088 31.9546C69.1665 29.7991 67.4696 27.9038 65.282 27.9038Z" fill="white"/>
  <path d="M35.5831 41.4773C36.4146 40.1022 36.1788 38.712 35.5426 37.4494L37.5026 36.4771C38.3273 38.1136 38.822 40.3472 37.4621 42.596L35.5831 41.4773Z" fill="white"/>
  <path d="M39.2166 44.4085C41.2998 40.6811 40.6402 36.9302 39.1802 33.7954L41.1694 32.8833C42.7957 36.375 43.6792 40.9072 41.133 45.4629L39.2166 44.4085Z" fill="white"/>
  <path d="M42.8522 48.0643C46.1225 41.7255 45.0616 35.3568 42.8197 30.1422L44.8353 29.2891C47.2229 34.8425 48.4768 41.9338 44.8028 49.0551L42.8522 48.0643Z" fill="white"/>
  <path fill-rule="evenodd" clip-rule="evenodd" d="M27.027 27.1791C27.027 28.9803 25.5554 30.4406 23.7399 30.4406C21.9245 30.4406 20.4529 28.9803 20.4529 27.1791C20.4529 25.3779 21.9245 23.9176 23.7399 23.9176C25.5554 23.9176 27.027 25.3779 27.027 27.1791ZM26.2758 32.804C28.4406 31.8417 29.9488 29.6852 29.9488 27.1791C29.9488 23.7767 27.1689 21.0186 23.7399 21.0186C20.311 21.0186 17.5311 23.7767 17.5311 27.1791C17.5311 29.8191 19.2048 32.0713 21.5568 32.948L15.0532 38.7864L13.1596 53.8158C13.0858 54.402 13.3779 54.974 13.8978 55.2617C14.4178 55.5493 15.0616 55.4952 15.5254 55.1249L30.4997 43.1662L28.6676 40.9077L16.5069 50.6194L17.8179 40.214L24.016 34.6499L27.7826 38.6747L29.9236 36.702L26.2758 32.804Z" fill="white"/>
  <path d="M34.3309 39.5001C34.3309 40.9011 33.1863 42.0368 31.7744 42.0368C30.3624 42.0368 29.2178 40.9011 29.2178 39.5001C29.2178 38.0991 30.3624 36.9634 31.7744 36.9634C33.1863 36.9634 34.3309 38.0991 34.3309 39.5001Z" fill="white"/>
  <path fill-rule="evenodd" clip-rule="evenodd" d="M56.9752 3.62385H21.9135C11.8281 3.62385 3.65226 11.7361 3.65226 21.7431V57.2569C3.65226 67.2639 11.8281 75.3761 21.9135 75.3761H56.9752C67.0606 75.3761 75.2365 67.2639 75.2365 57.2569V21.7431C75.2365 11.7361 67.0606 3.62385 56.9752 3.62385ZM21.9135 0C9.81103 0 0 9.73473 0 21.7431V57.2569C0 69.2653 9.81103 79 21.9135 79H56.9752C69.0777 79 78.8887 69.2653 78.8887 57.2569V21.7431C78.8887 9.73473 69.0777 0 56.9752 0H21.9135Z" fill="white"/>
</svg>
